<svg xmlns="http://www.w3.org/2000/svg" width="568" height="440" viewBox="0 0 568 440" version="1.1"><path d="M 143.250 153.068 C 148.485 155.832, 148.941 155.393, 129.008 166.750 C 107.423 179.048, 112.003 178.958, 90.405 167.509 C 80.557 162.289, 72.050 157.789, 71.500 157.509 C 70.866 157.186, 70.905 156.804, 71.608 156.464 C 72.218 156.169, 73.568 155.247, 74.608 154.416 C 76.296 153.066, 76.163 153.066, 73.369 154.416 C 70.756 155.678, 70.125 156.680, 69.558 160.464 C 69.184 162.959, 68.541 165, 68.130 165 C 64.301 165, 63.602 167.984, 66.750 170.888 C 69.770 173.675, 70.009 174.370, 70.126 180.694 C 70.196 184.437, 70.389 195.232, 70.555 204.682 C 70.725 214.369, 71.324 222.737, 71.928 223.866 C 72.518 224.967, 73 228.058, 73 230.734 C 73 235.369, 74.228 238, 76.391 238 C 76.936 238, 76.591 237.421, 75.623 236.714 C 74.312 235.755, 73.945 234.334, 74.182 231.133 C 74.500 226.839, 74.500 226.839, 78.864 230.008 C 81.264 231.751, 82.901 232.649, 82.501 232.002 C 82.083 231.326, 83.040 229.484, 84.756 227.664 C 86.395 225.924, 88.232 223.600, 88.838 222.500 C 89.444 221.400, 89.953 221.047, 89.970 221.715 C 89.986 222.383, 91.012 223.420, 92.250 224.020 C 94.281 225.004, 94.329 224.972, 92.750 223.695 C 91.200 222.441, 90.062 214, 91.443 214 C 92.614 214, 99 218.309, 99 219.099 C 99 219.594, 99.563 219.888, 100.250 219.750 C 102.431 219.314, 102.192 224.557, 99.804 229.524 C 97.562 234.185, 96.658 235.060, 92.500 236.593 C 91.074 237.119, 92.651 237.695, 98 238.602 C 102.125 239.302, 105.612 239.903, 105.750 239.937 C 106.784 240.197, 105.612 243.784, 103.895 245.612 C 101.038 248.653, 102.322 250.354, 107.002 249.727 C 111.889 249.071, 112.775 249.738, 113.563 254.670 C 114.397 259.883, 112.128 262.454, 105.866 263.393 C 102.372 263.917, 101.207 264.614, 100.216 266.776 C 98.944 269.552, 91.098 275, 88.372 275 C 87.545 275, 86.052 275.437, 85.054 275.971 C 83.539 276.782, 83.146 276.482, 82.682 274.160 C 82.338 272.441, 81.051 270.841, 79.313 269.971 C 74.568 267.598, 74.349 267.694, 78.250 270.436 C 81.829 272.952, 83.503 278.164, 81.406 280.261 C 79.479 282.188, 74.478 276.857, 73.907 272.267 C 73.314 267.500, 73.314 267.500, 73.157 272.227 C 73.019 276.374, 73.337 277.170, 75.750 278.714 C 77.263 279.682, 79.094 281.042, 79.820 281.736 C 81.888 283.712, 85.650 284.305, 92.334 283.708 C 95.725 283.405, 102.325 283.495, 107 283.907 C 111.675 284.319, 115.694 284.502, 115.931 284.314 C 116.169 284.125, 116.394 273.779, 116.431 261.322 C 116.483 244.143, 116.802 238.571, 117.750 238.253 C 118.612 237.963, 119 239.081, 119 241.858 C 119 244.071, 119.338 246.091, 119.750 246.347 C 120.163 246.603, 120.362 244.717, 120.193 242.156 C 119.908 237.840, 120.115 237.372, 123.024 235.750 C 127.306 233.362, 127.812 233.506, 128.277 237.250 C 128.524 239.246, 128.742 238.281, 128.840 234.750 C 128.983 229.613, 128.787 229, 127 229 C 124.651 229, 121 232.347, 121 234.500 C 121 237.737, 118.038 235.854, 116.986 231.948 C 113.700 219.746, 125.791 210.091, 130.443 221.201 C 133.185 227.751, 138 226.638, 138 219.454 C 138 215.217, 141.063 211.667, 144.719 211.667 C 145.424 211.667, 146 211.292, 146 210.833 C 146 210.375, 145.400 210, 144.667 210 C 137.122 210, 133.841 198.218, 140.600 195.394 C 142.470 194.612, 144 193.696, 144 193.358 C 144 192.360, 127.878 193.590, 127.158 194.643 C 126.796 195.172, 124.813 196.631, 122.750 197.884 C 119.613 199.791, 119 200.712, 119 203.523 C 119 208.155, 117.247 208.835, 116.437 204.517 C 115.023 196.976, 113.999 200.361, 113.965 212.691 C 113.914 230.937, 111.183 236.478, 110.855 219 C 110.652 208.157, 110.607 207.929, 110.070 215 C 109.251 225.775, 108 219.332, 108 204.341 C 108 191.066, 111.163 194.288, 83.103 178.971 C 64.437 168.782, 63.393 167.908, 67.732 166.111 C 70.345 165.029, 71.883 165.685, 89.849 175.546 L 109.159 186.145 128.693 175.509 C 140.443 169.111, 148.879 165.099, 149.864 165.439 C 151.244 165.917, 151.227 165.792, 149.750 164.642 C 148.549 163.707, 148 161.882, 148 158.825 C 148 154.710, 147.730 154.242, 144.466 152.685 C 139.582 150.356, 138.661 150.646, 143.250 153.068 M 154.032 261.361 C 154 273.046, 153.973 273.188, 152.156 270.944 C 150.312 268.667, 150.312 268.667, 147.541 271.777 C 141.400 278.670, 137.304 280.601, 134.004 278.161 C 132.396 276.973, 130.613 276, 130.040 276 C 129.468 276, 129 275.550, 129 275 C 129 274.450, 128.213 274.036, 127.250 274.079 C 126.205 274.126, 126.003 274.361, 126.750 274.662 C 128.239 275.263, 128.426 282.089, 127 283.800 C 126.273 284.673, 126.327 284.727, 127.200 284 C 127.860 283.450, 133.430 283, 139.578 283 C 150.038 283, 150.857 282.856, 152.326 280.750 C 153.895 278.500, 153.895 278.500, 153.948 280.708 C 153.985 282.294, 152.733 283.658, 149.500 285.553 C 143.353 289.155, 143.780 289.801, 149.999 286.308 C 154.998 283.500, 154.998 283.500, 155.118 270.500 C 155.231 258.232, 155.304 257.782, 156.415 262.500 C 157.593 267.500, 157.593 267.500, 173.830 277.709 C 182.761 283.324, 189.822 287.520, 189.521 287.034 C 189.220 286.547, 182.062 281.832, 173.615 276.556 C 156.936 266.139, 157.046 266.272, 157.011 256.441 C 157.005 254.759, 156.339 252.509, 155.532 251.441 C 154.214 249.699, 154.060 250.713, 154.032 261.361 M 38.750 282.758 C 37.237 283.696, 36 284.905, 36 285.444 C 36 285.984, 37.237 287.478, 38.750 288.765 C 40.884 290.581, 41.011 290.870, 39.316 290.053 C 38.114 289.474, 36.652 289, 36.066 289 C 34.801 289, 34.620 293.647, 35.856 294.411 C 36.326 294.702, 36.499 293.828, 36.239 292.470 C 35.589 289.067, 43.815 293.364, 99.883 325.712 C 102.294 327.103, 103.955 327.736, 103.574 327.120 C 102.421 325.253, 105.249 325.880, 109.852 328.512 C 114.077 330.927, 114.780 331.001, 133.852 331.030 C 147.590 331.052, 152.978 331.365, 151.764 332.072 C 150.708 332.687, 142.610 332.969, 131.108 332.792 C 119.966 332.620, 112.419 332.873, 112.750 333.407 C 114.572 336.348, 167.888 333.082, 174.718 329.611 C 185.661 324.048, 185.241 324.659, 187.636 310.833 C 190.051 296.888, 190.745 299.432, 188.500 314 C 186.949 324.062, 186.723 326.610, 187.446 325.888 C 189.093 324.240, 192.158 293.664, 190.909 291.330 C 189.405 288.521, 189.895 286.705, 185.556 311.180 C 181.362 334.838, 129.266 338.676, 93 317.999 C 81.175 311.257, 66.325 302.810, 60 299.227 C 35.392 285.288, 36.285 285.983, 39.592 283.337 C 43.005 280.606, 42.633 280.351, 38.750 282.758 M 156 308.752 C 151.818 310.840, 150.695 315.509, 153.716 318.243 C 159.417 323.402, 175 320.963, 175 314.911 C 175 307.994, 164.397 304.557, 156 308.752" stroke="none" fill="#eceff3" fill-rule="evenodd"/><path d="M 102.500 139.335 C 99.200 141.156, 92.225 144.928, 87 147.718 C 74.241 154.528, 71.009 156.407, 71.032 157 C 71.060 157.705, 107.085 176.433, 109.133 176.808 C 111.119 177.170, 147.129 156.895, 146.715 155.647 C 146.458 154.876, 110.183 135.991, 109 136.013 C 108.725 136.019, 105.800 137.513, 102.500 139.335 M 67.222 166.233 C 63.558 167.999, 64.741 168.948, 83.103 178.971 C 111.202 194.310, 107.984 190.931, 108.100 205.216 C 108.250 223.765, 109.562 225.004, 110.464 207.450 C 111.237 192.401, 111.237 192.401, 114.368 190.590 C 116.091 189.594, 125.713 184.287, 135.750 178.797 C 155.216 168.150, 155.541 167.881, 151.125 166.052 C 148.425 164.934, 147.056 165.511, 128.704 175.503 L 109.159 186.145 89.897 175.572 C 79.302 169.758, 70.379 165.030, 70.067 165.068 C 69.755 165.105, 68.475 165.629, 67.222 166.233 M 203.481 207.335 C 198.984 209.382, 194.302 215.251, 193.533 219.807 C 190.740 236.335, 210.710 246.791, 221.897 234.658 C 225.995 230.213, 220.268 226.071, 215.360 229.931 C 206.609 236.815, 196.046 224.800, 203.923 216.923 C 207.477 213.369, 211.592 213.104, 215.501 216.179 C 218.041 218.177, 218.488 218.237, 220.885 216.891 C 229.086 212.288, 212.549 203.208, 203.481 207.335 M 230.700 221.873 C 223.904 240.798, 224.046 239.185, 229.210 238.807 C 232.762 238.548, 233.511 238.109, 234.001 236 C 234.995 231.722, 245.644 231.680, 247.132 235.949 C 248.186 238.974, 256 240.814, 256 238.037 C 256 237.197, 248.768 216.395, 245.818 208.750 C 242.426 199.959, 236.824 204.822, 230.700 221.873 M 259 222.500 C 259 242.667, 266.565 249.807, 267.211 230.250 C 267.500 221.500, 267.500 221.500, 270.823 227.250 C 274.950 234.391, 275.734 234.393, 280.039 227.280 C 283.500 221.560, 283.500 221.560, 283.789 230.280 C 284.436 249.811, 292 242.644, 292 222.500 C 292 202.122, 288.180 199.115, 279.931 213 C 277.643 216.850, 275.618 220, 275.431 220 C 275.243 220, 273.218 216.850, 270.931 213 C 262.711 199.164, 259 202.118, 259 222.500 M 298 222.440 C 298 239, 298 239, 308 239 C 320.574 239, 324.449 232.436, 312.250 231.800 C 306.500 231.500, 306.500 231.500, 306 219 C 305.093 196.337, 298 199.387, 298 222.440 M 327.966 208.250 C 311.637 216.492, 319.044 241.499, 337.296 239.746 C 357.672 237.788, 355.953 206.170, 335.462 206.022 C 333.791 206.010, 330.418 207.012, 327.966 208.250 M 356 222.477 C 356 239.187, 356 239.187, 365.930 238.844 C 394.065 237.870, 394.105 207.298, 365.973 206.168 C 356 205.767, 356 205.767, 356 222.477 M 401.500 206.718 C 386.783 210.293, 385.930 233.483, 400.315 238.933 C 410.368 242.742, 423 234.517, 423 224.162 C 423 221, 423 221, 414 221 C 405 221, 405 221, 405 224.500 C 405 227.833, 405.167 228, 408.500 228 C 412.164 228, 412.812 228.788, 410.800 230.800 C 405.938 235.662, 395.914 228.223, 397.513 220.941 C 398.722 215.436, 407.881 211.741, 411 215.500 C 412.738 217.595, 414.299 217.375, 416.831 214.680 C 421.262 209.963, 410.706 204.481, 401.500 206.718 M 426.455 207.258 C 421.378 220.487, 427.267 238.521, 436.750 238.785 C 449.852 239.149, 453.707 232.415, 440.750 231.798 C 431.311 231.348, 430.415 226.283, 439.689 225.802 C 448.845 225.326, 449.382 219.273, 440.310 218.802 C 431.017 218.319, 431.434 213.645, 440.810 213.201 C 447.119 212.901, 447.119 212.901, 446.810 209.701 C 446.466 206.145, 427.744 203.898, 426.455 207.258 M 364.473 214.209 C 361.944 220.801, 364.611 231.498, 368.762 231.413 C 381.186 231.159, 381.503 214.950, 369.116 213.289 C 366.080 212.882, 364.892 213.117, 364.473 214.209 M 329.646 216.452 C 323.798 221.872, 327.611 232, 335.500 232 C 340.602 232, 344 228.401, 344 222.998 C 344 217.864, 340.350 214, 335.500 214 C 333.481 214, 331.311 214.909, 329.646 216.452 M 62.814 258.500 C 62.437 260.150, 61.862 263.542, 61.535 266.037 C 60.941 270.574, 60.941 270.574, 49.296 277.537 C 34.096 286.625, 28.739 281.443, 88.500 315.456 C 129.210 338.626, 181.105 336.340, 185.551 311.180 C 186.491 305.856, 187.834 298.417, 188.534 294.649 C 189.970 286.915, 192.603 289.536, 167.552 273.764 C 157.796 267.621, 157.581 267.403, 156.421 262.500 C 155.303 257.777, 155.231 258.221, 155.119 270.533 C 155.015 281.956, 123.252 308, 109.425 308 C 94.835 308, 64.021 282.120, 63.777 269.662 C 63.620 261.639, 63.203 256.800, 62.814 258.500 M 36 291.902 C 36 293.351, 43.220 297.915, 66.250 311.027 C 82.888 320.499, 100.388 330.470, 105.141 333.186 C 133.239 349.240, 185.355 337.500, 188.456 314.418 C 190.727 297.516, 189.991 294.759, 187.516 310.896 C 185.403 324.669, 185.821 324.073, 174.233 329.896 C 167.520 333.270, 116.300 336.092, 112.795 333.281 C 104.249 326.428, 36 289.654, 36 291.902 M 156 308.752 C 151.818 310.840, 150.695 315.509, 153.716 318.243 C 159.417 323.402, 175 320.963, 175 314.911 C 175 307.994, 164.397 304.557, 156 308.752" stroke="none" fill="#245fa1" fill-rule="evenodd"/></svg>